<svg width="1280" height="598" viewBox="0 0 1280 598" fill="none" xmlns="http://www.w3.org/2000/svg">
<g clip-path="url(#clip0_17653_685)">
<path d="M943.271 242.833C957.314 248.685 970.576 255.707 983.448 263.899C1069.65 317.732 1124.26 422.669 1108.27 522.925C1091.89 624.74 984.228 769.467 877.74 790.532C843.024 797.554 807.528 787.802 773.593 777.269C716.643 759.715 663.204 731.237 607.034 714.853C585.191 708.612 561.397 707.051 540.333 715.633C503.667 730.457 494.695 762.445 479.093 794.824C461.54 831.493 431.895 862.311 396.008 881.426C322.286 920.435 227.11 902.101 158.848 859.97C57.431 797.554 21.1549 674.673 54.7007 563.105C63.2821 534.237 76.9344 505.76 99.5582 485.475C138.175 450.366 196.295 444.125 247.003 456.998C282.109 465.97 314.095 483.134 344.52 501.859C369.484 517.463 392.498 538.919 423.313 538.919C485.724 539.309 504.837 458.948 524.73 414.087C550.865 354.792 594.942 302.909 649.552 268.19C737.707 211.626 847.315 201.873 943.271 242.833Z" fill="url(#paint0_linear_17653_685)"/>
<path d="M943.304 243.071C957.34 248.921 970.596 255.941 983.462 264.132C1069.63 317.954 1124.21 422.87 1108.22 523.105C1091.85 624.9 984.242 769.597 877.803 790.658C843.104 797.678 807.624 787.928 773.704 777.397C716.781 759.846 663.367 731.375 607.224 714.994C585.39 708.754 561.607 707.194 540.553 715.774C503.904 730.595 494.937 762.577 479.342 794.948C461.797 831.61 432.166 862.422 396.296 881.533C322.608 920.535 227.476 902.204 159.247 860.082C57.8768 797.678 21.6177 674.822 55.1477 563.277C63.7251 534.415 77.3711 505.944 99.9844 485.663C138.583 450.561 196.676 444.321 247.361 457.191C282.45 466.162 314.421 483.323 344.832 502.044C369.784 517.644 392.787 539.095 423.588 539.095C485.97 539.485 505.074 459.141 524.958 414.289C551.08 355.006 595.137 303.134 649.721 268.422C737.835 211.869 847.392 202.119 943.304 243.071Z" fill="url(#paint1_radial_17653_685)"/>
<path d="M24.6655 1044.1C-151.645 911.073 -48.667 618.109 121.012 528.386C184.593 494.837 258.705 481.964 330.087 491.326C394.448 499.909 474.802 521.754 540.723 496.788C590.652 477.673 613.666 430.471 639.8 387.56C712.352 268.19 895.293 245.954 986.179 359.083C1019.72 400.824 1033.38 458.948 1016.99 510.051C978.377 628.641 848.875 577.928 775.543 641.515C746.288 666.871 738.487 717.584 721.324 751.523C703.771 786.241 682.317 819.4 659.303 850.998C610.935 917.705 552.035 978.56 484.164 1025.76C348.811 1120.17 179.522 1148.25 36.3675 1052.68C32.4669 1049.95 28.5661 1047.22 24.6655 1044.1Z" fill="url(#paint2_linear_17653_685)"/>
<path d="M24.6655 1044.1C-151.645 911.073 -48.667 618.109 121.012 528.386C184.593 494.837 258.705 481.964 330.087 491.326C394.448 499.909 474.802 521.754 540.723 496.788C590.652 477.673 613.666 430.471 639.8 387.56C712.352 268.19 895.293 245.954 986.179 359.083C1019.72 400.824 1033.38 458.948 1016.99 510.051C978.377 628.641 848.875 577.928 775.543 641.515C746.288 666.871 738.487 717.584 721.324 751.523C703.771 786.241 682.317 819.4 659.303 850.998C610.935 917.705 552.035 978.56 484.164 1025.76C348.811 1120.17 179.522 1148.25 36.3675 1052.68C32.4669 1049.95 28.5661 1047.22 24.6655 1044.1Z" fill="url(#paint3_radial_17653_685)"/>
<path d="M455.5 398C438.103 398 424 383.897 424 366.5C424 349.103 438.103 335 455.5 335C472.897 335 487 349.103 487 366.5C487 383.897 472.897 398 455.5 398Z" fill="url(#paint4_linear_17653_685)"/>
</g>
<g clip-path="url(#clip1_17653_685)">
<path d="M1144.8 232.298C1160.23 238.669 1174.81 246.313 1188.95 255.231C1283.68 313.837 1343.69 428.075 1326.12 537.218C1308.12 648.059 1189.81 805.614 1072.79 828.547C1034.64 836.191 995.628 825.574 958.335 814.108C895.752 794.997 837.026 763.996 775.3 746.159C751.296 739.365 725.148 737.666 702 747.009C661.707 763.146 651.848 797.97 634.702 833.218C615.412 873.138 582.835 906.688 543.399 927.497C462.383 969.965 357.792 950.005 282.777 904.14C171.328 836.191 131.463 702.417 168.327 580.959C177.757 549.533 192.76 518.532 217.622 496.448C260.059 458.227 323.928 451.432 379.653 465.447C418.232 475.214 453.381 493.9 486.816 514.285C514.25 531.272 539.541 554.629 573.404 554.629C641.989 555.054 662.993 467.57 684.854 418.732C713.574 354.181 762.012 297.699 822.023 259.903C918.899 198.324 1039.35 187.707 1144.8 232.298Z" fill="url(#paint5_linear_17653_685)"/>
<path d="M1144.84 232.557C1160.26 238.925 1174.83 246.568 1188.97 255.485C1283.65 314.078 1343.64 428.293 1326.07 537.414C1308.08 648.232 1189.82 805.756 1072.86 828.684C1034.72 836.326 995.734 825.712 958.458 814.248C895.904 795.141 837.206 764.146 775.509 746.313C751.515 739.519 725.38 737.821 702.243 747.162C661.969 763.297 652.114 798.113 634.976 833.354C615.696 873.266 583.133 906.809 543.716 927.614C462.738 970.073 358.195 950.117 283.216 904.261C171.818 836.326 131.972 702.58 168.819 581.147C178.245 549.727 193.241 518.732 218.091 496.653C260.508 458.439 324.347 451.646 380.046 465.658C418.607 475.423 453.74 494.105 487.16 514.486C514.581 531.469 539.859 554.822 573.707 554.822C642.26 555.246 663.254 467.781 685.105 418.952C713.812 354.414 762.227 297.944 822.21 260.155C919.041 198.589 1039.44 187.974 1144.84 232.557Z" fill="url(#paint6_radial_17653_685)"/>
<path d="M135.32 1104.59C-58.4313 959.773 54.7333 640.839 241.198 543.163C311.068 506.641 392.512 492.626 470.956 502.819C541.684 512.161 629.986 535.943 702.429 508.764C757.296 487.955 782.587 436.569 811.307 389.854C891.036 259.903 1092.07 235.696 1191.95 358.853C1228.82 404.293 1243.82 467.57 1225.81 523.203C1183.38 652.305 1041.06 597.097 960.478 666.32C928.329 693.924 919.756 749.132 900.895 786.079C881.606 823.875 858.03 859.973 832.739 894.372C779.586 966.992 714.86 1033.24 640.274 1084.63C491.531 1187.4 305.496 1217.98 148.18 1113.93C143.893 1110.96 139.607 1107.99 135.32 1104.59Z" fill="url(#paint7_linear_17653_685)"/>
<path d="M135.32 1104.59C-58.4313 959.773 54.7333 640.839 241.198 543.163C311.068 506.641 392.512 492.626 470.956 502.819C541.684 512.161 629.986 535.943 702.429 508.764C757.296 487.955 782.587 436.569 811.307 389.854C891.036 259.903 1092.07 235.696 1191.95 358.853C1228.82 404.293 1243.82 467.57 1225.81 523.203C1183.38 652.305 1041.06 597.097 960.478 666.32C928.329 693.924 919.756 749.132 900.895 786.079C881.606 823.875 858.03 859.973 832.739 894.372C779.586 966.992 714.86 1033.24 640.274 1084.63C491.531 1187.4 305.496 1217.98 148.18 1113.93C143.893 1110.96 139.607 1107.99 135.32 1104.59Z" fill="url(#paint8_radial_17653_685)"/>
</g>
<path fill-rule="evenodd" clip-rule="evenodd" d="M776.107 0.572811C784.791 -1.70736 794.524 3.08273 799.436 10.2815C804.13 17.0424 805.407 26.5724 802.037 34.1453C800.807 36.8221 798.843 39.1899 796.948 41.4745C796.655 41.8279 796.363 42.1794 796.076 42.5297C793.548 45.7882 791.161 49.3944 789.688 53.155C788.11 57.1345 787.561 61.4571 787.023 65.694C786.953 66.2426 786.884 66.7898 786.812 67.3346C786.539 69.1346 786.265 70.9346 786.016 72.7365C786.035 74.8873 785.795 77.0374 785.237 79.1069C784.869 81.692 784.192 84.2352 782.553 86.2922C781.047 88.2735 778.84 88.989 776.534 88.9557C775.849 89.037 775.134 89.0086 774.392 88.8483C773.469 88.6712 772.6 88.367 771.774 87.9706C771.537 87.8796 771.303 87.7838 771.074 87.6839C767.345 86.0139 764.272 83.1981 761.913 79.8941C760.889 78.9974 759.858 78.1079 758.827 77.2184C758.418 76.8511 758.009 76.4806 757.6 76.1092C754.435 73.2408 751.207 70.3142 747.42 68.3179C743.855 66.4192 739.697 65.2324 735.657 64.4017C735.211 64.3222 734.761 64.2448 734.309 64.167C731.383 63.6641 728.351 63.1429 725.676 61.9096C718.19 58.3494 712.962 50.2796 712.131 42.0912C711.18 33.4281 715.458 23.4596 723.537 19.5434C731.855 15.5085 742.073 18.0006 749.915 21.6795C751.738 22.5072 753.551 23.4287 755.333 24.4378C755.98 22.6979 756.691 20.9981 757.46 19.3512C761.024 11.4564 767.165 2.91739 776.107 0.572811Z" fill="url(#paint9_linear_17653_685)"/>
<defs>
<linearGradient id="paint0_linear_17653_685" x1="-17.1521" y1="916.246" x2="1460.73" y2="109.172" gradientUnits="userSpaceOnUse">
<stop stop-color="#FF9370"/>
<stop offset="1" stop-color="#FFDF00"/>
</linearGradient>
<radialGradient id="paint1_radial_17653_685" cx="0" cy="0" r="1" gradientUnits="userSpaceOnUse" gradientTransform="translate(581.764 111.93) rotate(79.7207) scale(1206.28 1124.64)">
<stop stop-color="#FEBB40"/>
<stop offset="0.5576" stop-color="#EC4C76"/>
<stop offset="0.9726" stop-color="#D60B52"/>
</radialGradient>
<linearGradient id="paint2_linear_17653_685" x1="1003.01" y1="-211.149" x2="54.8375" y2="1305.36" gradientUnits="userSpaceOnUse">
<stop stop-color="#FFDF00"/>
<stop offset="1" stop-color="#FF9370"/>
</linearGradient>
<radialGradient id="paint3_radial_17653_685" cx="0" cy="0" r="1" gradientUnits="userSpaceOnUse" gradientTransform="translate(726.435 351.015) rotate(-122.48) scale(1284.19 2158.72)">
<stop stop-color="#FEBB40"/>
<stop offset="0.5576" stop-color="#EC4C76"/>
<stop offset="0.9726" stop-color="#D60B52"/>
</radialGradient>
<linearGradient id="paint4_linear_17653_685" x1="381.913" y1="418.344" x2="532.113" y2="312.255" gradientUnits="userSpaceOnUse">
<stop stop-color="#EC4C76"/>
<stop offset="0.5183" stop-color="#FEBB40"/>
<stop offset="1" stop-color="white"/>
</linearGradient>
<linearGradient id="paint5_linear_17653_685" x1="89.3663" y1="965.404" x2="1706.4" y2="73.9998" gradientUnits="userSpaceOnUse">
<stop stop-color="#FF9370"/>
<stop offset="1" stop-color="#FFDF00"/>
</linearGradient>
<radialGradient id="paint6_radial_17653_685" cx="0" cy="0" r="1" gradientUnits="userSpaceOnUse" gradientTransform="translate(747.531 89.791) rotate(79.6257) scale(1313.6 1235.52)">
<stop stop-color="#FEBB40"/>
<stop offset="0.5576" stop-color="#EC4C76"/>
<stop offset="0.9726" stop-color="#D60B52"/>
</radialGradient>
<linearGradient id="paint7_linear_17653_685" x1="1210.45" y1="-261.926" x2="182.503" y2="1397.7" gradientUnits="userSpaceOnUse">
<stop stop-color="#FFDF00"/>
<stop offset="1" stop-color="#FF9370"/>
</linearGradient>
<radialGradient id="paint8_radial_17653_685" cx="0" cy="0" r="1" gradientUnits="userSpaceOnUse" gradientTransform="translate(906.512 350.069) rotate(-122.724) scale(1401.84 2365.81)">
<stop stop-color="#FEBB40"/>
<stop offset="0.5576" stop-color="#EC4C76"/>
<stop offset="0.9726" stop-color="#D60B52"/>
</radialGradient>
<linearGradient id="paint9_linear_17653_685" x1="798.509" y1="39.8964" x2="657.779" y2="71.6348" gradientUnits="userSpaceOnUse">
<stop stop-color="#EC4C76"/>
<stop offset="0.5183" stop-color="#FEBB40"/>
<stop offset="1" stop-color="white"/>
</linearGradient>
<clipPath id="clip0_17653_685">
<rect width="1178" height="538" fill="white" transform="matrix(-1 0 0 1 1111 189)"/>
</clipPath>
<clipPath id="clip1_17653_685">
<rect width="511" height="393" fill="white" transform="translate(818 205)"/>
</clipPath>
</defs>
</svg>
