<svg width="1280" height="598" viewBox="0 0 1280 598" fill="none" xmlns="http://www.w3.org/2000/svg">
<path d="M455.5 398C438.103 398 424 383.897 424 366.5C424 349.103 438.103 335 455.5 335C472.897 335 487 349.103 487 366.5C487 383.897 472.897 398 455.5 398Z" fill="url(#paint0_linear_17653_685)"/>
<g clip-path="url(#clip0_17653_685)">
<path d="M1144.8 232.298C1160.23 238.669 1174.81 246.313 1188.95 255.231C1283.68 313.837 1343.69 428.075 1326.12 537.218C1308.12 648.059 1189.81 805.614 1072.79 828.547C1034.64 836.191 995.628 825.574 958.335 814.108C895.752 794.997 837.026 763.996 775.3 746.159C751.296 739.364 725.148 737.666 702 747.009C661.707 763.146 651.848 797.97 634.702 833.218C615.412 873.138 582.835 906.688 543.399 927.497C462.383 969.965 357.792 950.005 282.777 904.14C171.327 836.191 131.463 702.417 168.327 580.959C177.757 549.533 192.76 518.532 217.622 496.448C260.059 458.227 323.928 451.432 379.653 465.447C418.232 475.214 453.381 493.9 486.816 514.285C514.25 531.272 539.541 554.629 573.404 554.629C641.989 555.054 662.993 467.57 684.854 418.732C713.574 354.181 762.012 297.699 822.023 259.903C918.899 198.324 1039.35 187.707 1144.8 232.298Z" fill="url(#paint1_linear_17653_685)"/>
<path d="M1144.84 232.557C1160.26 238.925 1174.83 246.568 1188.97 255.485C1283.65 314.078 1343.64 428.293 1326.07 537.414C1308.08 648.232 1189.82 805.756 1072.86 828.684C1034.72 836.326 995.734 825.712 958.458 814.248C895.904 795.141 837.206 764.146 775.509 746.313C751.515 739.519 725.38 737.821 702.243 747.162C661.969 763.297 652.114 798.113 634.976 833.354C615.696 873.266 583.133 906.809 543.716 927.614C462.738 970.073 358.195 950.117 283.216 904.261C171.818 836.326 131.972 702.58 168.819 581.147C178.245 549.727 193.241 518.732 218.091 496.653C260.508 458.439 324.347 451.646 380.046 465.658C418.607 475.423 453.74 494.105 487.16 514.486C514.581 531.469 539.859 554.822 573.707 554.822C642.26 555.246 663.254 467.781 685.105 418.952C713.812 354.414 762.227 297.944 822.21 260.155C919.041 198.589 1039.44 187.974 1144.84 232.557Z" fill="url(#paint2_radial_17653_685)"/>
<path d="M135.32 1104.59C-58.4312 959.773 54.7333 640.839 241.198 543.163C311.068 506.641 392.512 492.626 470.956 502.819C541.684 512.161 629.986 535.943 702.429 508.764C757.296 487.955 782.587 436.569 811.307 389.854C891.036 259.903 1092.07 235.696 1191.95 358.853C1228.82 404.293 1243.82 467.57 1225.81 523.203C1183.38 652.305 1041.06 597.097 960.478 666.32C928.329 693.924 919.756 749.132 900.895 786.079C881.606 823.875 858.03 859.973 832.739 894.372C779.586 966.992 714.86 1033.24 640.274 1084.63C491.531 1187.4 305.496 1217.98 148.18 1113.93C143.893 1110.96 139.607 1107.99 135.32 1104.59Z" fill="url(#paint3_linear_17653_685)"/>
<path d="M135.32 1104.59C-58.4312 959.773 54.7333 640.839 241.198 543.163C311.068 506.641 392.512 492.626 470.956 502.819C541.684 512.161 629.986 535.943 702.429 508.764C757.296 487.955 782.587 436.569 811.307 389.854C891.036 259.903 1092.07 235.696 1191.95 358.853C1228.82 404.293 1243.82 467.57 1225.81 523.203C1183.38 652.305 1041.06 597.097 960.478 666.32C928.329 693.924 919.756 749.132 900.895 786.079C881.606 823.875 858.03 859.973 832.739 894.372C779.586 966.992 714.86 1033.24 640.274 1084.63C491.531 1187.4 305.496 1217.98 148.18 1113.93C143.893 1110.96 139.607 1107.99 135.32 1104.59Z" fill="url(#paint4_radial_17653_685)"/>
</g>
<path fill-rule="evenodd" clip-rule="evenodd" d="M776.107 0.572811C784.791 -1.70736 794.524 3.08273 799.436 10.2815C804.13 17.0424 805.407 26.5724 802.037 34.1453C800.807 36.8221 798.843 39.1899 796.948 41.4745C796.655 41.828 796.363 42.1794 796.076 42.5297C793.548 45.7882 791.161 49.3944 789.688 53.155C788.11 57.1345 787.561 61.4571 787.023 65.694C786.953 66.2426 786.884 66.7898 786.812 67.3346C786.539 69.1346 786.265 70.9346 786.016 72.7365C786.035 74.8873 785.795 77.0374 785.237 79.1069C784.869 81.692 784.192 84.2352 782.553 86.2922C781.047 88.2735 778.84 88.989 776.534 88.9557C775.849 89.037 775.134 89.0086 774.392 88.8483C773.469 88.6712 772.6 88.367 771.774 87.9706C771.537 87.8796 771.303 87.7838 771.074 87.6839C767.345 86.0139 764.272 83.1981 761.913 79.8941C760.889 78.9974 759.858 78.1079 758.827 77.2184C758.418 76.8511 758.009 76.4806 757.6 76.1092C754.435 73.2408 751.207 70.3142 747.42 68.3179C743.855 66.4192 739.697 65.2324 735.657 64.4017C735.211 64.3222 734.761 64.2448 734.308 64.167C731.383 63.6641 728.351 63.1428 725.676 61.9096C718.19 58.3494 712.962 50.2796 712.131 42.0912C711.18 33.4281 715.458 23.4596 723.537 19.5434C731.855 15.5085 742.073 18.0006 749.915 21.6795C751.738 22.5072 753.551 23.4287 755.333 24.4378C755.98 22.6979 756.691 20.9981 757.46 19.3512C761.024 11.4564 767.165 2.91739 776.107 0.572811Z" fill="url(#paint5_linear_17653_685)"/>
<defs>
<linearGradient id="paint0_linear_17653_685" x1="381.913" y1="418.344" x2="532.113" y2="312.255" gradientUnits="userSpaceOnUse">
<stop stop-color="#EC4C76"/>
<stop offset="0.5183" stop-color="#FEBB40"/>
<stop offset="1" stop-color="white"/>
</linearGradient>
<linearGradient id="paint1_linear_17653_685" x1="89.3663" y1="965.404" x2="1706.4" y2="73.9998" gradientUnits="userSpaceOnUse">
<stop stop-color="#FF9370"/>
<stop offset="1" stop-color="#FFDF00"/>
</linearGradient>
<radialGradient id="paint2_radial_17653_685" cx="0" cy="0" r="1" gradientUnits="userSpaceOnUse" gradientTransform="translate(747.531 89.791) rotate(79.6257) scale(1313.6 1235.52)">
<stop stop-color="#FEBB40"/>
<stop offset="0.5576" stop-color="#EC4C76"/>
<stop offset="0.9726" stop-color="#D60B52"/>
</radialGradient>
<linearGradient id="paint3_linear_17653_685" x1="1210.45" y1="-261.926" x2="182.503" y2="1397.7" gradientUnits="userSpaceOnUse">
<stop stop-color="#FFDF00"/>
<stop offset="1" stop-color="#FF9370"/>
</linearGradient>
<radialGradient id="paint4_radial_17653_685" cx="0" cy="0" r="1" gradientUnits="userSpaceOnUse" gradientTransform="translate(906.512 350.069) rotate(-122.724) scale(1401.84 2365.81)">
<stop stop-color="#FEBB40"/>
<stop offset="0.5576" stop-color="#EC4C76"/>
<stop offset="0.9726" stop-color="#D60B52"/>
</radialGradient>
<linearGradient id="paint5_linear_17653_685" x1="798.509" y1="39.8964" x2="657.779" y2="71.6348" gradientUnits="userSpaceOnUse">
<stop stop-color="#EC4C76"/>
<stop offset="0.5183" stop-color="#FEBB40"/>
<stop offset="1" stop-color="white"/>
</linearGradient>
<clipPath id="clip0_17653_685">
<rect width="511" height="393" fill="white" transform="translate(818 205)"/>
</clipPath>
</defs>
</svg>
