<svg width="18" height="19" fill="none">
<path fill="#F59256" d="M9 7.7a2.7 2.7 0 1 0 0 5.42 2.7 2.7 0 0 0 0-5.41Z"/>
<path fill="#F59256" fill-rule="evenodd" d="M6.7.2c-1.14 0-2.07.94-2.07 2.1v.14c0 .38-.31.68-.69.68a3.9 3.9 0 0 0-3.9 3.9v3.85c0 1.33 0 2.38.08 3.22.08.85.25 1.55.63 2.16.4.65.94 1.19 1.58 1.59a4.9 4.9 0 0 0 2.17.62c.83.08 1.88.08 3.22.08h2.56c1.34 0 2.39 0 3.22-.08a4.9 4.9 0 0 0 2.17-.62 4.8 4.8 0 0 0 1.58-1.59 4.9 4.9 0 0 0 .63-2.16c.08-.84.08-1.89.08-3.22V7.02a3.9 3.9 0 0 0-3.9-3.9.68.68 0 0 1-.68-.68v-.15c0-1.15-.94-2.08-2.09-2.08H6.71ZM5.05 10.43a3.96 3.96 0 1 1 7.92 0 3.96 3.96 0 0 1-7.92 0ZM14 7.92a.83.83 0 1 1 0-1.67.83.83 0 0 1 0 1.67Z" clip-rule="evenodd"/>
</svg>