<svg xmlns="http://www.w3.org/2000/svg" width="18" height="18" fill="none"><path fill="#F59256" stroke="#F59256" d="m15.3049 6.57135.0002-.00017c.0792-.07923.2077-.07936.2872.00009l1.5745 1.57447c.4901.49015.4901 1.28868 0 1.77883L15.5923 11.499c-.0399.0399-.0909.0596-.1437.0596-.0526 0-.1037-.0197-.1436-.0596h-.0001c-.0793-.0793-.0793-.2078 0-.287l.0001-.0001 1.1199-1.1201.8535-.85352H7.62891c-.11223 0-.20313-.0909-.20313-.20312 0-.11223.0909-.20313.20313-.20313h9.64949l-.8535-.85353-1.1199-1.12006-.0001-.00011c-.0793-.07924-.0793-.20774 0-.28698Zm-3.0783 7.20985v1.4063c0 1.2747-1.0378 2.3125-2.31254 2.3125h-7.0664c-1.27472 0-2.3125-1.0378-2.3125-2.3125V2.8125C.53516 1.53778 1.57294.5 2.84766.5h7.0664c1.27474 0 2.31254 1.03778 2.31254 2.3125v1.40625c0 .11222-.0909.20313-.2032.20313-.1122 0-.2031-.09091-.2031-.20313V2.8125c0-1.0515-.8547-1.90625-1.90624-1.90625h-7.0664C1.79615.90625.94141 1.761.94141 2.8125v12.375c0 1.0515.85474 1.9063 1.90625 1.9063h7.0664c1.05154 0 1.90624-.8548 1.90624-1.9063v-1.4063c0-.1122.0909-.2031.2031-.2031.1123 0 .2032.0909.2032.2031Z"/></svg>