<svg width="620" height="470" viewBox="0 0 620 470" fill="none" xmlns="http://www.w3.org/2000/svg">
<path d="M52.153 431.439C-48.039 355.823 10.4803 189.292 106.904 138.29C143.035 119.22 185.151 111.903 225.716 117.224C262.29 122.103 307.953 134.521 345.414 120.329C373.787 109.463 386.865 82.6321 401.717 58.24C442.946 -9.61432 546.907 -22.2539 598.554 42.0525C617.617 65.7794 625.375 98.8195 616.066 127.868C594.121 195.279 520.529 166.452 478.856 202.597C462.231 217.01 457.798 245.837 448.044 265.129C438.07 284.865 425.878 303.713 412.8 321.674C385.314 359.593 351.842 394.185 313.273 421.017C236.356 474.679 140.154 490.645 58.803 436.317C56.5863 434.765 54.3697 433.213 52.153 431.439Z" fill="url(#paint0_radial_17637_494)"/>
<defs>
<radialGradient id="paint0_radial_17637_494" cx="0" cy="0" r="1" gradientUnits="userSpaceOnUse" gradientTransform="translate(450.949 37.4663) rotate(-122.473) scale(729.916 1226.84)">
<stop stop-color="#FEBB40"/>
<stop offset="0.5576" stop-color="#EC4C76"/>
<stop offset="0.9726" stop-color="#D60B52"/>
</radialGradient>
</defs>
</svg>
