<svg width="320" height="456" viewBox="0 0 320 456" fill="none" xmlns="http://www.w3.org/2000/svg">
<path d="M-33.847 431.439C-134.039 355.823 -75.5197 189.292 20.904 138.29C57.0352 119.22 99.1513 111.903 139.716 117.224C176.29 122.103 221.953 134.521 259.414 120.329C287.787 109.463 300.865 82.6321 315.717 58.24C356.946 -9.61432 460.907 -22.2539 512.554 42.0525C531.617 65.7794 539.375 98.8195 530.066 127.868C508.121 195.279 434.529 166.452 392.856 202.597C376.231 217.01 371.798 245.837 362.044 265.129C352.07 284.865 339.878 303.713 326.8 321.674C299.314 359.593 265.842 394.185 227.273 421.017C150.356 474.679 54.1536 490.645 -27.197 436.317C-29.4137 434.765 -31.6303 433.213 -33.847 431.439Z" fill="url(#paint0_radial_105_551)"/>
<defs>
<radialGradient id="paint0_radial_105_551" cx="0" cy="0" r="1" gradientUnits="userSpaceOnUse" gradientTransform="translate(364.949 37.4663) rotate(-122.473) scale(729.916 1226.84)">
<stop stop-color="#FEBB40"/>
<stop offset="0.5576" stop-color="#EC4C76"/>
<stop offset="0.9726" stop-color="#D60B52"/>
</radialGradient>
</defs>
</svg>
