<svg width="1380" height="1194" viewBox="0 0 1380 1194" fill="none" xmlns="http://www.w3.org/2000/svg">
<path d="M155.624 1134.12C-98.4382 987.531 -10.437 584.646 198.594 438.75C276.932 384.175 372.521 355.133 468.133 355.841C554.364 356.665 663.835 372.363 746.656 328.717C809.352 295.39 831.995 229.431 859.451 168.619C935.632 -0.524185 1173.14 -59.6379 1311.36 74.6489C1362.38 124.194 1389.85 198.574 1376.58 268.593C1345 431.179 1166.04 385.444 1079.75 481.195C1045.32 519.38 1043.3 587.487 1026.2 635.013C1008.72 683.63 985.849 730.826 960.663 776.22C907.778 872.016 840.058 961.816 758.289 1035.08C595.264 1181.56 376.706 1246.16 172.446 1143.52C166.86 1140.56 161.274 1137.6 155.624 1134.12Z" fill="url(#paint0_radial_17643_498)"/>
<defs>
<radialGradient id="paint0_radial_17643_498" cx="0" cy="0" r="1" gradientUnits="userSpaceOnUse" gradientTransform="translate(967.689 106.339) rotate(-129.53) scale(1705.4 2866.93)">
<stop stop-color="#FEBB40"/>
<stop offset="0.5576" stop-color="#EC4C76"/>
<stop offset="0.9726" stop-color="#D60B52"/>
</radialGradient>
</defs>
</svg>
