<svg width="1397" height="974" viewBox="0 0 1397 974" fill="none" xmlns="http://www.w3.org/2000/svg">
<path d="M1211.91 27.2984C1227.34 33.6686 1241.91 41.3128 1256.06 50.2311C1350.79 108.837 1410.8 223.075 1393.23 332.218C1375.23 443.059 1256.92 600.614 1139.89 623.547C1101.74 631.191 1062.74 620.574 1025.44 609.108C962.861 589.997 904.136 558.996 842.409 541.159C818.405 534.364 792.257 532.666 769.11 542.009C728.816 558.146 718.957 592.97 701.811 628.218C682.522 668.138 649.944 701.688 610.508 722.497C529.492 764.965 424.901 745.005 349.887 699.14C238.437 631.191 198.572 497.417 235.436 375.959C244.867 344.533 259.87 313.532 284.731 291.448C327.168 253.227 391.037 246.432 446.762 260.447C485.341 270.214 520.491 288.9 553.926 309.285C581.36 326.272 606.65 349.629 640.514 349.629C709.098 350.054 730.102 262.57 751.964 213.732C780.683 149.181 829.121 92.6989 889.133 54.9025C986.008 -6.67584 1106.46 -17.2928 1211.91 27.2984Z" fill="url(#paint0_linear_17643_530)"/>
<path d="M1211.94 27.5566C1227.37 33.9254 1241.94 41.5681 1256.08 50.4845C1350.76 109.078 1410.75 223.293 1393.18 332.414C1375.19 443.232 1256.93 600.756 1139.96 623.684C1101.83 631.326 1062.84 620.712 1025.57 609.248C963.014 590.141 904.315 559.146 842.618 541.313C818.625 534.519 792.489 532.821 769.353 542.162C729.078 558.297 719.224 593.113 702.086 628.354C682.805 668.266 650.243 701.809 610.825 722.614C529.847 765.073 425.305 745.117 350.325 699.261C238.927 631.326 199.081 497.58 235.928 376.147C245.354 344.727 260.35 313.732 285.201 291.653C327.617 253.439 391.457 246.646 447.156 260.658C485.717 270.423 520.85 289.105 554.269 309.486C581.69 326.469 606.969 349.822 640.817 349.822C709.369 350.246 730.363 262.781 752.215 213.952C780.921 149.414 829.336 92.9437 889.32 55.155C986.15 -6.41081 1106.55 -17.0256 1211.94 27.5566Z" fill="url(#paint1_radial_17643_530)"/>
<path d="M202.429 899.588C8.67813 754.773 121.843 435.839 308.307 338.163C378.177 301.641 459.622 287.626 538.065 297.819C608.793 307.161 697.096 330.943 769.538 303.764C824.406 282.955 849.696 231.569 878.416 184.854C958.146 54.9025 1159.18 30.6958 1259.06 153.853C1295.92 199.293 1310.93 262.57 1292.92 318.203C1250.49 447.305 1108.17 392.097 1027.59 461.32C995.438 488.924 986.865 544.132 968.005 581.079C948.715 618.875 925.139 654.973 899.849 689.372C846.696 761.992 781.969 828.242 707.383 879.628C558.641 982.4 372.605 1012.98 215.289 908.931C211.003 905.958 206.716 902.985 202.429 899.588Z" fill="url(#paint2_linear_17643_530)"/>
<path d="M202.429 899.588C8.67813 754.773 121.843 435.839 308.307 338.163C378.177 301.641 459.622 287.626 538.065 297.819C608.793 307.161 697.096 330.943 769.538 303.764C824.406 282.955 849.696 231.569 878.416 184.854C958.146 54.9025 1159.18 30.6958 1259.06 153.853C1295.92 199.293 1310.93 262.57 1292.92 318.203C1250.49 447.305 1108.17 392.097 1027.59 461.32C995.438 488.924 986.865 544.132 968.005 581.079C948.715 618.875 925.139 654.973 899.849 689.372C846.696 761.992 781.969 828.242 707.383 879.628C558.641 982.4 372.605 1012.98 215.289 908.931C211.003 905.958 206.716 902.985 202.429 899.588Z" fill="url(#paint3_radial_17643_530)"/>
<path d="M1010.38 37.8335C1024.42 43.685 1037.69 50.7067 1050.56 58.8988C1136.76 112.732 1191.37 217.669 1175.38 317.925C1159 419.74 1051.34 564.467 944.85 585.532C910.134 592.554 874.638 582.802 840.702 572.269C783.752 554.715 730.313 526.237 674.144 509.853C652.3 503.612 628.506 502.051 607.442 510.633C570.776 525.457 561.805 557.445 546.202 589.824C528.649 626.493 499.004 657.311 463.118 676.426C389.395 715.435 294.219 697.101 225.958 654.97C124.54 592.554 88.2643 469.673 121.81 358.105C130.391 329.237 144.044 300.76 166.668 280.475C205.284 245.366 263.404 239.125 314.113 251.998C349.219 260.97 381.204 278.134 411.629 296.859C436.593 312.463 459.607 333.919 490.422 333.919C552.833 334.309 571.946 253.948 591.84 209.087C617.974 149.792 662.052 97.9087 716.661 63.1899C804.816 6.62555 914.424 -3.12692 1010.38 37.8335Z" fill="url(#paint4_linear_17643_530)"/>
<path d="M1010.41 38.0706C1024.45 43.9209 1037.71 50.9412 1050.57 59.1316C1136.74 112.954 1191.32 217.87 1175.33 318.105C1158.96 419.9 1051.35 564.597 944.913 585.658C910.213 592.678 874.733 582.928 840.814 572.397C783.89 554.847 730.476 526.375 674.333 509.994C652.499 503.754 628.717 502.194 607.663 510.774C571.014 525.595 562.046 557.577 546.451 589.948C528.906 626.61 499.275 657.422 463.406 676.533C389.718 715.535 294.586 697.204 226.356 655.082C124.986 592.678 88.727 469.822 122.257 358.277C130.835 329.415 144.48 300.944 167.094 280.663C205.692 245.561 263.785 239.321 314.47 252.191C349.559 261.162 381.53 278.323 411.941 297.044C436.894 312.644 459.897 334.095 490.698 334.095C553.079 334.485 572.183 254.141 592.067 209.289C618.19 150.006 662.247 98.1336 716.83 63.4218C804.944 6.86899 914.502 -2.8815 1010.41 38.0706Z" fill="url(#paint5_radial_17643_530)"/>
<path d="M91.7748 839.097C-84.5351 706.073 18.4424 413.109 188.121 323.386C251.702 289.837 325.815 276.964 397.197 286.326C461.558 294.909 541.911 316.754 607.833 291.788C657.761 272.673 680.775 225.471 706.909 182.56C779.462 63.1899 962.403 40.9542 1053.29 154.083C1086.83 195.824 1100.49 253.948 1084.1 305.051C1045.49 423.641 915.985 372.928 842.652 436.515C813.397 461.871 805.596 512.584 788.433 546.523C770.88 581.241 749.427 614.4 726.413 645.998C678.044 712.705 619.144 773.56 551.273 820.762C415.92 915.166 246.631 943.253 103.477 847.679C99.5762 844.948 95.6755 842.218 91.7748 839.097Z" fill="url(#paint6_linear_17643_530)"/>
<path d="M91.7748 839.097C-84.5351 706.073 18.4424 413.109 188.121 323.386C251.702 289.837 325.815 276.964 397.197 286.326C461.558 294.909 541.911 316.754 607.833 291.788C657.761 272.673 680.775 225.471 706.909 182.56C779.462 63.1899 962.403 40.9542 1053.29 154.083C1086.83 195.824 1100.49 253.948 1084.1 305.051C1045.49 423.641 915.985 372.928 842.652 436.515C813.397 461.871 805.596 512.584 788.433 546.523C770.88 581.241 749.427 614.4 726.413 645.998C678.044 712.705 619.144 773.56 551.273 820.762C415.92 915.166 246.631 943.253 103.477 847.679C99.5762 844.948 95.6755 842.218 91.7748 839.097Z" fill="url(#paint7_radial_17643_530)"/>
<path d="M557.609 223C540.212 223 526.109 208.897 526.109 191.5C526.109 174.103 540.212 160 557.609 160C575.006 160 589.109 174.103 589.109 191.5C589.109 208.897 575.006 223 557.609 223Z" fill="url(#paint8_linear_17643_530)"/>
<path d="M423.609 130C403.451 130 387.109 113.658 387.109 93.5C387.109 73.3416 403.451 57 423.609 57C443.768 57 460.109 73.3416 460.109 93.5C460.109 113.658 443.768 130 423.609 130Z" fill="url(#paint9_linear_17643_530)"/>
<defs>
<linearGradient id="paint0_linear_17643_530" x1="156.476" y1="760.404" x2="1773.51" y2="-131" gradientUnits="userSpaceOnUse">
<stop stop-color="#FF9370"/>
<stop offset="1" stop-color="#FFDF00"/>
</linearGradient>
<radialGradient id="paint1_radial_17643_530" cx="0" cy="0" r="1" gradientUnits="userSpaceOnUse" gradientTransform="translate(814.64 -115.209) rotate(79.6257) scale(1313.6 1235.52)">
<stop stop-color="#FEBB40"/>
<stop offset="0.5576" stop-color="#EC4C76"/>
<stop offset="0.9726" stop-color="#D60B52"/>
</radialGradient>
<linearGradient id="paint2_linear_17643_530" x1="1277.56" y1="-466.926" x2="249.612" y2="1192.7" gradientUnits="userSpaceOnUse">
<stop stop-color="#FFDF00"/>
<stop offset="1" stop-color="#FF9370"/>
</linearGradient>
<radialGradient id="paint3_radial_17643_530" cx="0" cy="0" r="1" gradientUnits="userSpaceOnUse" gradientTransform="translate(973.622 145.069) rotate(-122.724) scale(1401.84 2365.81)">
<stop stop-color="#FEBB40"/>
<stop offset="0.5576" stop-color="#EC4C76"/>
<stop offset="0.9726" stop-color="#D60B52"/>
</radialGradient>
<linearGradient id="paint4_linear_17643_530" x1="49.9573" y1="711.246" x2="1527.84" y2="-95.8282" gradientUnits="userSpaceOnUse">
<stop stop-color="#FF9370"/>
<stop offset="1" stop-color="#FFDF00"/>
</linearGradient>
<radialGradient id="paint5_radial_17643_530" cx="0" cy="0" r="1" gradientUnits="userSpaceOnUse" gradientTransform="translate(648.873 -93.0703) rotate(79.7207) scale(1206.28 1124.64)">
<stop stop-color="#FEBB40"/>
<stop offset="0.5576" stop-color="#EC4C76"/>
<stop offset="0.9726" stop-color="#D60B52"/>
</radialGradient>
<linearGradient id="paint6_linear_17643_530" x1="1070.12" y1="-416.149" x2="121.947" y2="1100.36" gradientUnits="userSpaceOnUse">
<stop stop-color="#FFDF00"/>
<stop offset="1" stop-color="#FF9370"/>
</linearGradient>
<radialGradient id="paint7_radial_17643_530" cx="0" cy="0" r="1" gradientUnits="userSpaceOnUse" gradientTransform="translate(793.545 146.015) rotate(-122.48) scale(1284.19 2158.72)">
<stop stop-color="#FEBB40"/>
<stop offset="0.5576" stop-color="#EC4C76"/>
<stop offset="0.9726" stop-color="#D60B52"/>
</radialGradient>
<linearGradient id="paint8_linear_17643_530" x1="484.022" y1="243.344" x2="634.222" y2="137.255" gradientUnits="userSpaceOnUse">
<stop stop-color="#EC4C76"/>
<stop offset="0.5183" stop-color="#FEBB40"/>
<stop offset="1" stop-color="white"/>
</linearGradient>
<linearGradient id="paint9_linear_17643_530" x1="338.342" y1="153.573" x2="512.383" y2="30.6448" gradientUnits="userSpaceOnUse">
<stop stop-color="#EC4C76"/>
<stop offset="0.703531" stop-color="#FEBB40"/>
<stop offset="1" stop-color="white"/>
</linearGradient>
</defs>
</svg>
