<svg width="768" height="403" viewBox="0 0 768 403" fill="none" xmlns="http://www.w3.org/2000/svg">
<g clip-path="url(#clip0_109_713)">
<path d="M847.799 43.2984C863.231 49.6686 877.805 57.3128 891.951 66.2311C986.683 124.837 1046.69 239.075 1029.12 348.218C1011.12 459.059 892.808 616.614 775.786 639.547C737.635 647.191 698.628 636.574 661.335 625.108C598.752 605.997 540.026 574.996 478.3 557.159C454.296 550.365 428.148 548.666 405 558.009C364.707 574.146 354.848 608.97 337.702 644.218C318.412 684.138 285.835 717.688 246.399 738.497C165.383 780.965 60.7917 761.005 -14.2227 715.14C-125.672 647.191 -165.537 513.417 -128.673 391.959C-119.243 360.533 -104.24 329.532 -79.3779 307.448C-36.9412 269.227 26.9281 262.432 82.653 276.447C121.232 286.214 156.381 304.9 189.816 325.285C217.25 342.272 242.541 365.629 276.404 365.629C344.989 366.054 365.993 278.57 387.854 229.732C416.574 165.181 465.012 108.699 525.023 70.9025C621.899 9.32416 742.351 -1.2928 847.799 43.2984Z" fill="url(#paint0_linear_109_713)"/>
<path d="M847.836 43.5566C863.26 49.9254 877.827 57.5681 891.966 66.4845C986.654 125.078 1046.64 239.293 1029.07 348.414C1011.08 459.232 892.823 616.756 775.855 639.684C737.723 647.326 698.734 636.712 661.458 625.248C598.904 606.141 540.206 575.146 478.509 557.313C454.515 550.519 428.38 548.821 405.243 558.162C364.969 574.297 355.114 609.113 337.976 644.354C318.696 684.266 286.133 717.809 246.716 738.614C165.738 781.073 61.1953 761.117 -13.7841 715.261C-125.182 647.326 -165.028 513.58 -128.181 392.147C-118.755 360.727 -103.759 329.732 -78.9088 307.653C-36.4919 269.439 27.3475 262.646 83.0464 276.658C121.607 286.423 156.74 305.105 190.16 325.486C217.581 342.469 242.859 365.822 276.707 365.822C345.26 366.246 366.254 278.781 388.105 229.952C416.812 165.414 465.227 108.944 525.21 71.155C622.041 9.58919 742.436 -1.02561 847.836 43.5566Z" fill="url(#paint1_radial_109_713)"/>
<path d="M-161.68 915.588C-355.431 770.773 -242.267 451.839 -55.8024 354.163C14.0681 317.641 95.5123 303.626 173.956 313.819C244.684 323.161 332.986 346.943 405.429 319.764C460.296 298.955 485.587 247.569 514.307 200.854C594.036 70.9025 795.075 46.6958 894.951 169.853C931.815 215.293 946.818 278.57 928.814 334.203C886.378 463.305 744.065 408.097 663.478 477.32C631.329 504.924 622.756 560.132 603.895 597.079C584.606 634.875 561.03 670.973 535.739 705.372C482.586 777.992 417.86 844.242 343.274 895.628C194.531 998.4 8.49561 1028.98 -148.82 924.931C-153.107 921.958 -157.393 918.985 -161.68 915.588Z" fill="url(#paint2_linear_109_713)"/>
<path d="M-161.68 915.588C-355.431 770.773 -242.267 451.839 -55.8024 354.163C14.0681 317.641 95.5123 303.626 173.956 313.819C244.684 323.161 332.986 346.943 405.429 319.764C460.296 298.955 485.587 247.569 514.307 200.854C594.036 70.9025 795.075 46.6958 894.951 169.853C931.815 215.293 946.818 278.57 928.814 334.203C886.378 463.305 744.065 408.097 663.478 477.32C631.329 504.924 622.756 560.132 603.895 597.079C584.606 634.875 561.03 670.973 535.739 705.372C482.586 777.992 417.86 844.242 343.274 895.628C194.531 998.4 8.49561 1028.98 -148.82 924.931C-153.107 921.958 -157.393 918.985 -161.68 915.588Z" fill="url(#paint3_radial_109_713)"/>
</g>
<g clip-path="url(#clip1_109_713)">
<path d="M646.271 53.8335C660.314 59.685 673.576 66.7067 686.448 74.8988C772.653 128.732 827.262 233.669 811.269 333.925C794.887 435.74 687.228 580.467 580.74 601.532C546.024 608.554 510.528 598.802 476.593 588.269C419.643 570.715 366.204 542.237 310.034 525.853C288.191 519.612 264.397 518.051 243.333 526.633C206.667 541.457 197.695 573.445 182.093 605.824C164.54 642.493 134.895 673.311 99.0085 692.426C25.2859 731.435 -69.8902 713.101 -138.152 670.97C-239.569 608.554 -275.845 485.673 -242.299 374.105C-233.718 345.237 -220.066 316.76 -197.442 296.475C-158.825 261.366 -100.705 255.125 -49.9968 267.998C-14.8908 276.97 17.0946 294.134 47.5198 312.859C72.484 328.463 95.4979 349.919 126.313 349.919C188.724 350.309 207.837 269.948 227.73 225.087C253.865 165.792 297.942 113.909 352.552 79.1899C440.707 22.6256 550.315 12.8731 646.271 53.8335Z" fill="url(#paint4_linear_109_713)"/>
<path d="M646.304 54.0706C660.34 59.9209 673.596 66.9412 686.462 75.1316C772.626 128.954 827.21 233.87 811.225 334.105C794.85 435.9 687.242 580.597 580.803 601.658C546.104 608.678 510.624 598.928 476.704 588.397C419.781 570.846 366.367 542.375 310.224 525.994C288.39 519.754 264.607 518.194 243.553 526.774C206.904 541.595 197.937 573.577 182.342 605.948C164.797 642.61 135.166 673.422 99.2963 692.533C25.6082 731.535 -69.5236 713.204 -137.753 671.082C-239.123 608.678 -275.382 485.822 -241.852 374.277C-233.275 345.415 -219.629 316.944 -197.016 296.663C-158.417 261.561 -100.324 255.321 -49.6395 268.191C-14.5499 277.162 17.4206 294.323 47.8316 313.044C72.7842 328.644 95.7873 350.095 126.588 350.095C188.97 350.485 208.074 270.141 227.958 225.289C254.08 166.006 298.137 114.134 352.721 79.4218C440.835 22.869 550.392 13.1185 646.304 54.0706Z" fill="url(#paint5_radial_109_713)"/>
<path d="M-272.335 855.097C-448.645 722.073 -345.667 429.109 -175.988 339.386C-112.407 305.837 -38.2947 292.964 33.0874 302.326C97.4483 310.909 177.802 332.754 243.723 307.788C293.652 288.673 316.666 241.471 342.8 198.56C415.352 79.1899 598.293 56.9542 689.179 170.083C722.724 211.824 736.377 269.948 719.994 321.051C681.377 439.641 551.875 388.928 478.543 452.515C449.288 477.871 441.487 528.584 424.324 562.523C406.771 597.241 385.317 630.4 362.303 661.998C313.935 728.705 255.035 789.56 187.164 836.762C51.8105 931.166 -117.478 959.253 -260.633 863.679C-264.533 860.948 -268.434 858.218 -272.335 855.097Z" fill="url(#paint6_linear_109_713)"/>
<path d="M-272.335 855.097C-448.645 722.073 -345.667 429.109 -175.988 339.386C-112.407 305.837 -38.2947 292.964 33.0874 302.326C97.4483 310.909 177.802 332.754 243.723 307.788C293.652 288.673 316.666 241.471 342.8 198.56C415.352 79.1899 598.293 56.9542 689.179 170.083C722.724 211.824 736.377 269.948 719.994 321.051C681.377 439.641 551.875 388.928 478.543 452.515C449.288 477.871 441.487 528.584 424.324 562.523C406.771 597.241 385.317 630.4 362.303 661.998C313.935 728.705 255.035 789.56 187.164 836.762C51.8105 931.166 -117.478 959.253 -260.633 863.679C-264.533 860.948 -268.434 858.218 -272.335 855.097Z" fill="url(#paint7_radial_109_713)"/>
<path d="M193.5 239C176.103 239 162 224.897 162 207.5C162 190.103 176.103 176 193.5 176C210.897 176 225 190.103 225 207.5C225 224.897 210.897 239 193.5 239Z" fill="url(#paint8_linear_109_713)"/>
<path d="M59.5 146C39.3416 146 23 129.658 23 109.5C23 89.3416 39.3416 73 59.5 73C79.6584 73 96 89.3416 96 109.5C96 129.658 79.6584 146 59.5 146Z" fill="url(#paint9_linear_109_713)"/>
</g>
<defs>
<linearGradient id="paint0_linear_109_713" x1="-207.634" y1="776.404" x2="1409.4" y2="-115" gradientUnits="userSpaceOnUse">
<stop stop-color="#FF9370"/>
<stop offset="1" stop-color="#FFDF00"/>
</linearGradient>
<radialGradient id="paint1_radial_109_713" cx="0" cy="0" r="1" gradientUnits="userSpaceOnUse" gradientTransform="translate(450.531 -99.209) rotate(79.6257) scale(1313.6 1235.52)">
<stop stop-color="#FEBB40"/>
<stop offset="0.5576" stop-color="#EC4C76"/>
<stop offset="0.9726" stop-color="#D60B52"/>
</radialGradient>
<linearGradient id="paint2_linear_109_713" x1="913.451" y1="-450.926" x2="-114.497" y2="1208.7" gradientUnits="userSpaceOnUse">
<stop stop-color="#FFDF00"/>
<stop offset="1" stop-color="#FF9370"/>
</linearGradient>
<radialGradient id="paint3_radial_109_713" cx="0" cy="0" r="1" gradientUnits="userSpaceOnUse" gradientTransform="translate(609.512 161.069) rotate(-122.724) scale(1401.84 2365.81)">
<stop stop-color="#FEBB40"/>
<stop offset="0.5576" stop-color="#EC4C76"/>
<stop offset="0.9726" stop-color="#D60B52"/>
</radialGradient>
<linearGradient id="paint4_linear_109_713" x1="-314.152" y1="727.246" x2="1163.73" y2="-79.8282" gradientUnits="userSpaceOnUse">
<stop stop-color="#FF9370"/>
<stop offset="1" stop-color="#FFDF00"/>
</linearGradient>
<radialGradient id="paint5_radial_109_713" cx="0" cy="0" r="1" gradientUnits="userSpaceOnUse" gradientTransform="translate(284.764 -77.0703) rotate(79.7207) scale(1206.28 1124.64)">
<stop stop-color="#FEBB40"/>
<stop offset="0.5576" stop-color="#EC4C76"/>
<stop offset="0.9726" stop-color="#D60B52"/>
</radialGradient>
<linearGradient id="paint6_linear_109_713" x1="706.014" y1="-400.149" x2="-242.163" y2="1116.36" gradientUnits="userSpaceOnUse">
<stop stop-color="#FFDF00"/>
<stop offset="1" stop-color="#FF9370"/>
</linearGradient>
<radialGradient id="paint7_radial_109_713" cx="0" cy="0" r="1" gradientUnits="userSpaceOnUse" gradientTransform="translate(429.435 162.015) rotate(-122.48) scale(1284.19 2158.72)">
<stop stop-color="#FEBB40"/>
<stop offset="0.5576" stop-color="#EC4C76"/>
<stop offset="0.9726" stop-color="#D60B52"/>
</radialGradient>
<linearGradient id="paint8_linear_109_713" x1="119.913" y1="259.344" x2="270.113" y2="153.255" gradientUnits="userSpaceOnUse">
<stop stop-color="#EC4C76"/>
<stop offset="0.5183" stop-color="#FEBB40"/>
<stop offset="1" stop-color="white"/>
</linearGradient>
<linearGradient id="paint9_linear_109_713" x1="-25.7676" y1="169.573" x2="148.273" y2="46.6448" gradientUnits="userSpaceOnUse">
<stop stop-color="#EC4C76"/>
<stop offset="0.703531" stop-color="#FEBB40"/>
<stop offset="1" stop-color="white"/>
</linearGradient>
<clipPath id="clip0_109_713">
<rect width="511" height="393" fill="white" transform="translate(521 16)"/>
</clipPath>
<clipPath id="clip1_109_713">
<rect width="1178" height="538" fill="white" transform="matrix(-1 0 0 1 814 0)"/>
</clipPath>
</defs>
</svg>
